<svg xmlns="http://www.w3.org/2000/svg" viewBox="0 0 64 64" role="img" aria-hidden="true">
  <defs>
    <linearGradient id="m" x1="0" y1="0" x2="1" y2="1">
      <stop stop-color="#22d3ee"/>
      <stop offset="1" stop-color="#a78bfa"/>
    </linearGradient>
    <linearGradient id="s" x1="0" y1="0" x2="1" y2="1">
      <stop stop-color="#fcd34d"/>
      <stop offset="1" stop-color="#fb923c"/>
    </linearGradient>
  </defs>
  <rect width="64" height="64" rx="18" fill="#0b1220"/>
  <path fill="none" stroke="url(#m)" stroke-width="3" stroke-linecap="round" stroke-linejoin="round" d="M18 44V24l14-9 14 9v20"/>
  <path fill="url(#m)" d="M44 30c0-5.5-4.5-10-10-10-3.2 0-6 1.5-7.9 3.8-1.4-.9-3-1.4-4.8-1.4-4.7 0-8.5 3.8-8.5 8.5 0 .4 0 .8.1 1.2-2.8 1-4.8 3.7-4.8 6.8 0 4 3.3 7.3 7.3 7.3H44c5 0 9-4 9-9s-4-9-9-9z"/>
  <circle cx="32" cy="14" r="4.5" fill="url(#s)"/>
</svg>
